PathFileType	4	(X/Y/Z)	Patient4_TMGait_0pt7_02_left_44.trc.trc
DataRate	CameraRate	NumFrames	NumMarkers	Units	OrigDataRate	OrigDataStartFrame	OrigNumFrames
89.171974522293	89.171974522293	4	33	mm	89.171974522293	106	       141
Frame#	Time	Sacral			L.Shoulder			Chest			R.Shoulder			Neck			R.ASIS			L.ASIS			R.Thigh.Superior			R.Thigh.Lateral			R.Thigh.Inferior			R.Patella			L.Thigh.Superior			L.Thigh.Lateral			L.Thigh.Inferior			L.Patella			L.Shank.Superior			L.Shank.Lateral			L.Shank.Inferior			R.Shank.Superior			R.Shank.Lateral			R.Shank.Inferior			R.Heel			R.Midfoot.Superior			R.Midfoot.Lateral			R.Toe			L.Heel			L.Midfoot.Lateral			L.Midfoot.Superior			L.Toe			L.Elbow			L.Wrist			R.Elbow			R.Wrist			
		X1	Y1	Z1	X2	Y2	Z2	X3	Y3	Z3	X4	Y4	Z4	X5	Y5	Z5	X6	Y6	Z6	X7	Y7	Z7	X8	Y8	Z8	X9	Y9	Z9	X10	Y10	Z10	X11	Y11	Z11	X12	Y12	Z12	X13	Y13	Z13	X14	Y14	Z14	X15	Y15	Z15	X16	Y16	Z16	X17	Y17	Z17	X18	Y18	Z18	X19	Y19	Z19	X20	Y20	Z20	X21	Y21	Z21	X22	Y22	Z22	X23	Y23	Z23	X24	Y24	Z24	X25	Y25	Z25	X26	Y26	Z26	X27	Y27	Z27	X28	Y28	Z28	X29	Y29	Z29	X30	Y30	Z30	X31	Y31	Z31	X32	Y32	Z32	X33	Y33	Z33	

106	51.567500000000	720.334343746151	1014.663677136600	514.680493159640	897.576809521286	1425.726638336087	302.378975807578	1018.645921163157	1353.427299321661	450.859091184559	965.237827614011	1438.601371556595	631.183000651405	922.560416806311	1490.196461792818	453.567429044012	950.735549786630	942.831676302866	619.503464079237	919.134012824972	956.545981010031	346.610348328987	972.446690636092	736.183031064373	592.718149655461	882.948177020634	634.769388889020	655.030127621821	951.954978576958	576.159492572393	573.229199311986	944.286212308220	490.948808172060	578.438550834415	1021.475994789619	813.726296687014	390.031368751860	1016.083514491561	687.090229315743	299.647912135751	1127.405210303810	644.926542217017	370.109309455531	1160.695393346425	556.411415890348	358.201148695163	1101.137177123076	478.971580981220	348.631072417106	963.547137580593	423.241620906702	301.009074881736	965.517644715093	292.707999609707	353.193760513474	915.770086575763	403.764658596186	586.139203532379	842.984713337633	300.738953040420	647.119901666348	883.661918915516	205.743268040819	582.325962518610	749.164124560079	41.882844461257	548.964915210868	919.423941271257	97.283645510708	589.056331157578	830.846656232237	36.176220729219	624.950400889179	1039.070841055108	45.585840372270	618.350092631127	784.318400291738	208.711384936157	392.710788506567	844.286661385379	170.967695173364	310.155089488171	948.437445561472	187.937994710201	330.086768166001	1035.562414314840	84.734534990254	296.947052391370	821.393313836211	1071.075268895445	226.198187078255	926.336628109529	832.355509771970	232.640157988169	967.553263277003	1095.137808463399	771.070394712815	1125.127881239799	888.588011763905	736.033896352480	
107	51.578714285714	719.748688752191	1014.846620021477	515.710166185454	896.619003591991	1425.154127465105	302.400179962233	1018.472237100317	1352.925070131558	450.220125958517	966.390023713691	1438.294173689578	630.878313304042	922.591771980172	1489.859086043120	453.481651136757	950.479824224655	942.440178563075	619.142584739627	917.569072265885	956.499050347774	346.332324238441	969.717083124032	735.308714278519	592.132249891494	879.277595358808	634.669430710757	655.239529460703	947.030739834241	575.249432753714	573.276129165044	938.401090647674	490.370611455874	578.538845083589	1020.692281460957	816.466970657264	390.331711944244	1018.010116198770	690.168145329986	299.094001227081	1129.801027262249	649.889071292669	369.548892250657	1165.216079008856	562.440107457866	357.235015984392	1108.569549174238	483.302474030213	347.668335900181	973.373614904520	421.732862469711	300.393721361107	981.322959569677	291.174349568563	352.382783374875	909.454486244859	403.394170017024	586.146840950109	836.416581672632	300.690471872089	647.333131504227	876.410732110522	205.549462851948	582.358710380597	741.289912880447	41.950587834703	549.018677460048	911.583544039393	97.175199279241	589.068576411608	822.967639696986	36.216840023463	625.077427807857	1031.216565616365	45.273897069867	618.381446320951	804.164317850016	198.934712989319	392.441567436042	865.469651506996	164.183151179177	309.530103141190	968.886544864855	185.844254990466	329.141449460731	1060.590904577744	86.715270349452	295.329562930954	817.588368841793	1070.595091822588	228.256861088526	900.804272652570	823.285134193065	234.172585424456	976.910792976083	1095.484357418109	771.169032791454	1147.616979636810	901.294524977430	730.275562601583	
108	51.589928571429	719.264000471294	1014.926212285582	516.537599515199	895.958324776190	1424.486994295004	302.280303440859	1018.428911331374	1352.326007044043	449.564780664762	967.493551500205	1437.924498258902	630.487329860441	922.758513133605	1489.436762141551	453.272101242889	950.256553188244	942.028577705469	618.779076812032	916.249885772561	956.306066367139	345.993044535693	967.098758637218	734.413327805618	591.660575877014	875.591231178267	634.561716940858	655.420388768639	942.178282600921	574.335506717799	573.402753060106	932.595129135230	489.775089683172	578.679180756145	1019.821128804523	818.629884835890	390.375096735987	1019.329551705134	692.615045680080	298.456203669157	1131.562700988597	654.032797499518	368.711297467685	1168.877628858776	567.721609053302	356.096442798572	1115.296690817967	487.050953299538	346.612958500107	982.998567730654	419.505310746287	299.463398193306	997.041725625862	289.229809946746	351.381049815593	903.157277043907	403.021177413802	586.171899087290	829.844869361542	300.661932444714	647.537893927237	869.170817383599	205.374992768131	582.406720044844	733.408838709073	42.038139976406	549.073637394274	903.757949526112	97.079210904691	589.093306366940	815.086562919532	36.265974287071	625.218294756893	1023.366595792312	44.955984805658	618.415598116535	824.423552905674	188.696025643470	391.712583150590	887.124837662815	157.032777817443	308.612840079789	989.474846221215	183.485258406931	328.099810402578	1085.730634025657	88.755863084931	293.918572627569	813.585326210422	1070.322143181287	229.753337993269	875.610095534532	816.751114872500	235.682639953015	986.112204813931	1095.967115222251	770.902871470589	1169.260212570138	915.605221768080	723.891146366948	
109	51.601142857143	718.900862907268	1014.909539061554	517.144352397979	895.602473176069	1423.746065384741	302.015307057233	1018.521917784476	1351.642380441396	448.889940973682	968.548175416118	1437.504917554480	630.006662746763	923.071070671061	1488.940288888205	452.938359922190	950.069637836500	941.614191384278	618.443030239048	915.188489731124	955.938041588852	345.611608436032	964.591480932577	733.497696224705	591.337800099128	871.878297887015	634.453009849746	655.577476489418	937.406151353999	573.421222055651	573.620548278953	926.880635015678	489.160742758726	578.861236387835	1018.906172220502	820.178104144188	390.179435028604	1020.043603419129	694.351207750273	297.758418961385	1132.699600694674	657.243847496040	367.609722217237	1171.663130678624	572.135196330334	354.826185553434	1121.268741549476	490.130128061307	345.519254983754	992.419766035168	416.540104287144	298.203723788024	1012.584895438910	286.888103562289	350.214502196042	896.889595764561	402.653272003741	586.224079126075	823.265926831634	300.661772615220	647.732373141221	861.946643248064	205.224705446577	582.468823949070	725.520632019407	42.145199068800	549.129596830598	895.945178142415	96.995690180367	589.130698301833	807.202419133907	36.322693835083	625.365780494321	1015.519892811357	44.638371684399	618.454583046549	844.995533348032	178.073809236298	390.470944803916	909.187991916472	149.591139062632	307.396437878318	1010.100646782588	180.912938140134	326.997560497303	1110.854612935925	90.932653405921	292.841615944703	809.232429570584	1070.333835022935	230.685281537288	851.176128562181	812.643842147808	237.144104076449	995.191185044697	1096.580823232183	770.241337337925	1189.869965863841	931.448864489160	716.934989528498	
